<svg width="292" height="306" viewBox="0 0 292 306" fill="none" xmlns="http://www.w3.org/2000/svg">
<path d="M26.3676 88.848C16.2674 77.6779 7.33081 67.9459 3.32808 53.1362C-6.24878 17.7026 14.6965 6.56776 48.2585 4.69799C74.6877 3.22558 71.5338 11.7748 86.4324 27.6834C113.609 56.7027 144.284 41.0317 164.74 86.9001C183.382 128.704 224.201 105.89 232.077 135.765C243.216 178.021 162.245 158.806 143.735 208.739C130.097 245.527 171.38 302.224 124.336 304.937C88.9694 306.976 48.5223 258.841 34.8807 231.955C22.1369 206.838 32.9563 173.829 45.5559 150.922C57.0503 130.023 40.222 104.17 26.3676 88.848Z" stroke="white" stroke-linecap="round" stroke-linejoin="round"/>
<path d="M243.356 43.6273C251.493 55.6569 245.468 69.3035 245.756 82.4234C246.408 112.151 272.366 119.723 287.222 140.73C302.386 162.175 266.749 180.287 242.838 193.527C189.386 223.125 95.9144 191.827 98.1085 132.646C98.7677 114.865 115.505 105.308 112.982 89.3787C109.336 66.3614 69.1027 48.2661 82.7648 21.542C110.593 -32.8924 147.159 36.8845 173.415 47.4663C196.266 56.6757 223.811 14.735 243.356 43.6273Z" stroke="white" stroke-linecap="round" stroke-linejoin="round"/>
</svg>
